<svg width="2166" height="1280" viewBox="0 0 2166 1280" fill="none" xmlns="http://www.w3.org/2000/svg">
<rect width="1500" height="1000" transform="matrix(0.866025 0.5 -0.866025 0.5 866.025 0)" fill="#2D4C1E"/>
<rect width="1500" height="30" transform="matrix(0.866025 0.5 0 1 0 500)" fill="#102210"/>
<rect width="1000" height="30" transform="matrix(0.866025 -0.5 0 1 1299.04 1250)" fill="#1F3815"/>
<rect width="1001.16" height="300" transform="matrix(0.866025 0.5 -0.866025 0.5 507.808 209)" fill="#333333"/>
<rect width="1013.85" height="303.802" transform="matrix(0.869608 0.493743 -0.869608 0.493743 932.188 455)" fill="#333333"/>
<rect width="1000" height="50" transform="matrix(0.866025 0.5 -0.866025 0.5 394.301 270)" fill="white"/>
<rect width="1000" height="50" transform="matrix(0.866025 0.5 -0.866025 0.5 826.301 519)" fill="white"/>
<rect width="164.871" height="41.2177" transform="matrix(0.866025 0.5 -0.866025 0.5 370.019 334)" fill="#333333"/>
<rect width="164.871" height="41.2177" transform="matrix(0.866025 0.5 -0.866025 0.5 353.696 343.233)" fill="#333333"/>
<rect width="164.871" height="41.2177" transform="matrix(0.866025 0.5 -0.866025 0.5 459.019 299)" fill="#333333"/>
<rect width="164.871" height="41.2177" transform="matrix(0.866025 0.5 -0.866025 0.5 442.696 308.233)" fill="#333333"/>
<rect width="164.871" height="41.2177" transform="matrix(0.866025 0.5 -0.866025 0.5 684.019 429)" fill="#333333"/>
<rect width="164.871" height="41.2177" transform="matrix(0.866025 0.5 -0.866025 0.5 667.696 438.233)" fill="#333333"/>
<rect width="164.871" height="41.2177" transform="matrix(0.866025 0.5 -0.866025 0.5 926.019 571)" fill="#333333"/>
<rect width="164.871" height="41.2177" transform="matrix(0.866025 0.5 -0.866025 0.5 909.696 580.233)" fill="#333333"/>
<rect width="164.871" height="41.2177" transform="matrix(0.866025 0.5 -0.866025 0.5 1410.7 874)" fill="#333333"/>
<rect width="164.871" height="41.2177" transform="matrix(0.866025 0.5 -0.866025 0.5 1410.7 874)" fill="#333333"/>
<rect width="164.871" height="41.2177" transform="matrix(0.866025 0.5 -0.866025 0.5 1425.7 865)" fill="#333333"/>
<rect width="164.871" height="41.2177" transform="matrix(0.866025 0.5 -0.866025 0.5 1435.7 859)" fill="#333333"/>
<rect width="164.871" height="41.2177" transform="matrix(0.866025 0.5 -0.866025 0.5 1141.7 716)" fill="#333333"/>
<rect width="164.871" height="41.2177" transform="matrix(0.866025 0.5 -0.866025 0.5 1141.7 716)" fill="#333333"/>
<rect width="164.871" height="41.2177" transform="matrix(0.866025 0.5 -0.866025 0.5 1156.7 707)" fill="#333333"/>
<rect width="164.871" height="41.2177" transform="matrix(0.866025 0.5 -0.866025 0.5 1166.7 701)" fill="#333333"/>
<rect width="164.871" height="41.2177" transform="matrix(0.866025 0.5 -0.866025 0.5 1303.02 874)" fill="#333333"/>
<rect width="164.871" height="41.2177" transform="matrix(0.866025 0.5 -0.866025 0.5 1286.7 883.233)" fill="#333333"/>
<rect width="150" height="150" transform="matrix(0.866025 0.5 -0.866025 0.5 721.904 56)" fill="#B0BEC5"/>
<rect width="150" height="30" transform="matrix(0.866025 0.5 0 1 592 131)" fill="#90A4AE"/>
<rect width="150" height="30" transform="matrix(0.866025 -0.5 0 1 721.904 206)" fill="#CFD8DC"/>
<rect width="150" height="150" transform="matrix(0.866025 0.5 -0.866025 0.5 721.904 56)" fill="#B0BEC5"/>
<rect width="150" height="30" transform="matrix(0.866025 0.5 0 1 592 131)" fill="#90A4AE"/>
<rect width="150" height="30" transform="matrix(0.866025 -0.5 0 1 721.904 206)" fill="#CFD8DC"/>
<rect width="150" height="150" transform="matrix(0.866025 0.5 -0.866025 0.5 904.888 160.522)" fill="#B0BEC5"/>
<rect width="150" height="30" transform="matrix(0.866025 0.5 0 1 774.985 235.522)" fill="#90A4AE"/>
<rect width="150" height="30" transform="matrix(0.866025 -0.5 0 1 904.888 310.522)" fill="#CFD8DC"/>
<rect width="150.347" height="150.347" transform="matrix(0.86669 0.498848 -0.86669 0.498848 1086.92 267.112)" fill="#B0BEC5"/>
<rect width="150.346" height="30" transform="matrix(0.866025 0.5 0 1 956.615 342.112)" fill="#90A4AE"/>
<rect width="150.347" height="30" transform="matrix(0.86669 -0.498848 0 1 1086.92 417.112)" fill="#CFD8DC"/>
<rect width="150.347" height="150.347" transform="matrix(0.86669 0.498848 -0.86669 0.498848 1086.92 267.112)" fill="#B0BEC5"/>
<rect width="150.346" height="30" transform="matrix(0.866025 0.5 0 1 956.614 342.112)" fill="#90A4AE"/>
<rect width="150.347" height="30" transform="matrix(0.86669 -0.498848 0 1 1086.92 417.112)" fill="#CFD8DC"/>
<rect width="150.346" height="30" transform="matrix(0.866025 0.5 0 1 1560.43 685.708)" fill="#90A4AE"/>
<rect width="150.347" height="150.347" transform="matrix(0.86669 0.498848 -0.86669 0.498848 1690.83 610.808)" fill="#B0BEC5"/>
<rect width="150.347" height="30" transform="matrix(0.86669 -0.498848 0 1 1690.83 760.808)" fill="#CFD8DC"/>
<rect width="150.347" height="150.347" transform="matrix(0.86669 0.498848 -0.86669 0.498848 1896.43 726.209)" fill="#B0BEC5"/>
<rect width="150.346" height="30" transform="matrix(0.866025 0.5 0 1 1766.13 801.209)" fill="#90A4AE"/>
<rect width="150.347" height="30" transform="matrix(0.86669 -0.498848 0 1 1896.43 876.209)" fill="#CFD8DC"/>
<rect width="150.347" height="150.347" transform="matrix(0.86669 0.498848 -0.86669 0.498848 1896.43 726.209)" fill="#B0BEC5"/>
<rect width="150.346" height="30" transform="matrix(0.866025 0.5 0 1 1766.13 801.209)" fill="#90A4AE"/>
<rect width="150.347" height="30" transform="matrix(0.86669 -0.498848 0 1 1896.43 876.209)" fill="#CFD8DC"/>
<rect width="150.347" height="150.347" transform="matrix(0.86669 0.498848 -0.86669 0.498848 1488.55 496.221)" fill="#B0BEC5"/>
<rect width="150.346" height="30" transform="matrix(0.866025 0.5 0 1 1358.25 571.221)" fill="#90A4AE"/>
<rect width="150.347" height="30" transform="matrix(0.86669 -0.498848 0 1 1488.55 646.221)" fill="#CFD8DC"/>
<rect width="150.347" height="150.347" transform="matrix(0.86669 0.498848 -0.86669 0.498848 1488.55 496.221)" fill="#B0BEC5"/>
<rect width="150.346" height="30" transform="matrix(0.866025 0.5 0 1 1358.25 571.221)" fill="#90A4AE"/>
<rect width="150.347" height="30" transform="matrix(0.86669 -0.498848 0 1 1488.55 646.221)" fill="#CFD8DC"/>
<rect width="150.347" height="150.347" transform="matrix(0.86669 0.498848 -0.86669 0.498848 1284.87 379.945)" fill="#B0BEC5"/>
<rect width="150.346" height="30" transform="matrix(0.866025 0.5 0 1 1154.56 454.945)" fill="#90A4AE"/>
<rect width="150.347" height="30" transform="matrix(0.86669 -0.498848 0 1 1284.87 529.945)" fill="#CFD8DC"/>
<rect width="150.347" height="150.347" transform="matrix(0.86669 0.498848 -0.86669 0.498848 1284.87 379.945)" fill="#B0BEC5"/>
<rect width="150.346" height="30" transform="matrix(0.866025 0.5 0 1 1154.56 454.945)" fill="#90A4AE"/>
<rect width="150.347" height="30" transform="matrix(0.86669 -0.498848 0 1 1284.87 529.945)" fill="#CFD8DC"/>
<rect width="150" height="150" transform="matrix(0.866025 0.5 -0.866025 0.5 166.904 376)" fill="#B0BEC5"/>
<rect width="150" height="30" transform="matrix(0.866025 0.5 0 1 37 451)" fill="#90A4AE"/>
<rect width="150" height="30" transform="matrix(0.866025 -0.5 0 1 166.904 526)" fill="#CFD8DC"/>
<rect width="150" height="150" transform="matrix(0.866025 0.5 -0.866025 0.5 166.904 376)" fill="#B0BEC5"/>
<rect width="150" height="30" transform="matrix(0.866025 0.5 0 1 37 451)" fill="#90A4AE"/>
<rect width="150" height="30" transform="matrix(0.866025 -0.5 0 1 166.904 526)" fill="#CFD8DC"/>
<rect width="150" height="150" transform="matrix(0.866025 0.5 -0.866025 0.5 349.888 480.522)" fill="#B0BEC5"/>
<rect width="150" height="30" transform="matrix(0.866025 0.5 0 1 219.985 555.522)" fill="#90A4AE"/>
<rect width="150" height="30" transform="matrix(0.866025 -0.5 0 1 349.888 630.522)" fill="#CFD8DC"/>
<rect width="150.347" height="150.347" transform="matrix(0.86669 0.498848 -0.86669 0.498848 531.917 587.112)" fill="#B0BEC5"/>
<rect width="150.346" height="30" transform="matrix(0.866025 0.5 0 1 401.615 662.112)" fill="#90A4AE"/>
<rect width="150.347" height="30" transform="matrix(0.86669 -0.498848 0 1 531.917 737.112)" fill="#CFD8DC"/>
<rect width="150.347" height="150.347" transform="matrix(0.86669 0.498848 -0.86669 0.498848 531.917 587.112)" fill="#B0BEC5"/>
<rect width="150.346" height="30" transform="matrix(0.866025 0.5 0 1 401.614 662.112)" fill="#90A4AE"/>
<rect width="150.347" height="30" transform="matrix(0.86669 -0.498848 0 1 531.917 737.112)" fill="#CFD8DC"/>
<rect width="150.346" height="30" transform="matrix(0.866025 0.5 0 1 1005.43 1005.71)" fill="#90A4AE"/>
<rect width="150.347" height="150.347" transform="matrix(0.86669 0.498848 -0.86669 0.498848 1135.83 930.808)" fill="#B0BEC5"/>
<rect width="150.347" height="30" transform="matrix(0.86669 -0.498848 0 1 1135.83 1080.81)" fill="#CFD8DC"/>
<rect width="150.347" height="150.347" transform="matrix(0.86669 0.498848 -0.86669 0.498848 1341.43 1046.21)" fill="#B0BEC5"/>
<rect width="150.346" height="30" transform="matrix(0.866025 0.5 0 1 1211.13 1121.21)" fill="#90A4AE"/>
<rect width="150.347" height="30" transform="matrix(0.86669 -0.498848 0 1 1341.43 1196.21)" fill="#CFD8DC"/>
<rect width="150.347" height="150.347" transform="matrix(0.86669 0.498848 -0.86669 0.498848 1341.43 1046.21)" fill="#B0BEC5"/>
<rect width="150.346" height="30" transform="matrix(0.866025 0.5 0 1 1211.13 1121.21)" fill="#90A4AE"/>
<rect width="150.347" height="30" transform="matrix(0.86669 -0.498848 0 1 1341.43 1196.21)" fill="#CFD8DC"/>
<rect width="150.347" height="150.347" transform="matrix(0.86669 0.498848 -0.86669 0.498848 933.548 816.221)" fill="#B0BEC5"/>
<rect width="150.346" height="30" transform="matrix(0.866025 0.5 0 1 803.246 891.221)" fill="#90A4AE"/>
<rect width="150.347" height="30" transform="matrix(0.86669 -0.498848 0 1 933.548 966.221)" fill="#CFD8DC"/>
<rect width="150.347" height="150.347" transform="matrix(0.86669 0.498848 -0.86669 0.498848 933.548 816.221)" fill="#B0BEC5"/>
<rect width="150.346" height="30" transform="matrix(0.866025 0.5 0 1 803.246 891.221)" fill="#90A4AE"/>
<rect width="150.347" height="30" transform="matrix(0.86669 -0.498848 0 1 933.548 966.221)" fill="#CFD8DC"/>
<rect width="150.347" height="150.347" transform="matrix(0.86669 0.498848 -0.86669 0.498848 729.866 699.945)" fill="#B0BEC5"/>
<rect width="150.346" height="30" transform="matrix(0.866025 0.5 0 1 599.563 774.945)" fill="#90A4AE"/>
<rect width="150.347" height="30" transform="matrix(0.86669 -0.498848 0 1 729.866 849.945)" fill="#CFD8DC"/>
<rect width="150.347" height="150.347" transform="matrix(0.86669 0.498848 -0.86669 0.498848 729.866 699.945)" fill="#B0BEC5"/>
<rect width="150.346" height="30" transform="matrix(0.866025 0.5 0 1 599.563 774.945)" fill="#90A4AE"/>
<rect width="150.347" height="30" transform="matrix(0.86669 -0.498848 0 1 729.866 849.945)" fill="#CFD8DC"/>
<rect width="10" height="10" transform="matrix(0.866025 0.5 -0.866025 0.5 1899.66 651)" fill="#3E6030"/>
<rect width="10" height="20" transform="matrix(0.866025 0.5 0 1 1891 656)" fill="#2B4520"/>
<rect width="10" height="20" transform="matrix(0.866025 -0.5 0 1 1899.66 661)" fill="#1A2E15"/>
<rect width="10" height="10" transform="matrix(0.866025 0.5 -0.866025 0.5 1899.66 651)" fill="#3E6030"/>
<rect width="10" height="20" transform="matrix(0.866025 0.5 0 1 1891 656)" fill="#2B4520"/>
<rect width="10" height="20" transform="matrix(0.866025 -0.5 0 1 1899.66 661)" fill="#1A2E15"/>
<rect width="10" height="10" transform="matrix(0.866025 0.5 -0.866025 0.5 1939.66 666)" fill="#3E6030"/>
<rect width="10" height="20" transform="matrix(0.866025 0.5 0 1 1931 671)" fill="#2B4520"/>
<rect width="10" height="20" transform="matrix(0.866025 -0.5 0 1 1939.66 676)" fill="#1A2E15"/>
<rect width="10" height="10" transform="matrix(0.866025 0.5 -0.866025 0.5 1939.66 666)" fill="#3E6030"/>
<rect width="10" height="20" transform="matrix(0.866025 0.5 0 1 1931 671)" fill="#2B4520"/>
<rect width="10" height="20" transform="matrix(0.866025 -0.5 0 1 1939.66 676)" fill="#1A2E15"/>
<rect width="10" height="10" transform="matrix(0.866025 0.5 -0.866025 0.5 2064.66 731)" fill="#3E6030"/>
<rect width="10" height="20" transform="matrix(0.866025 0.5 0 1 2056 736)" fill="#2B4520"/>
<rect width="10" height="20" transform="matrix(0.866025 -0.5 0 1 2064.66 741)" fill="#1A2E15"/>
<rect width="10" height="10" transform="matrix(0.866025 0.5 -0.866025 0.5 2064.66 731)" fill="#3E6030"/>
<rect width="10" height="20" transform="matrix(0.866025 0.5 0 1 2056 736)" fill="#2B4520"/>
<rect width="10" height="20" transform="matrix(0.866025 -0.5 0 1 2064.66 741)" fill="#1A2E15"/>
<rect width="10" height="20" transform="matrix(0.866025 -0.5 0 1 2110.66 736)" fill="#1A2E15"/>
<rect width="10" height="10" transform="matrix(0.866025 0.5 -0.866025 0.5 2110.66 726)" fill="#3E6030"/>
<rect width="10" height="20" transform="matrix(0.866025 0.5 0 1 2102 731)" fill="#2B4520"/>
<rect width="10" height="10" transform="matrix(0.866025 0.5 -0.866025 0.5 2110.66 726)" fill="#3E6030"/>
<rect width="10" height="20" transform="matrix(0.866025 0.5 0 1 2102 731)" fill="#2B4520"/>
<rect width="10" height="20" transform="matrix(0.866025 -0.5 0 1 2110.66 736)" fill="#1A2E15"/>
<rect width="10" height="10" transform="matrix(0.866025 0.5 -0.866025 0.5 823.66 309)" fill="#26A641"/>
<rect width="10" height="20" transform="matrix(0.866025 0.5 0 1 815 314)" fill="#26A641"/>
<rect width="10" height="20" transform="matrix(0.866025 -0.5 0 1 823.66 319)" fill="#006D32"/>
<rect width="10" height="10" transform="matrix(0.866025 0.5 -0.866025 0.5 823.66 309)" fill="#26A641"/>
<rect width="10" height="20" transform="matrix(0.866025 0.5 0 1 815 314)" fill="#26A641"/>
<rect width="10" height="20" transform="matrix(0.866025 -0.5 0 1 823.66 319)" fill="#006D32"/>
<rect width="10" height="10" transform="matrix(0.866025 0.5 -0.866025 0.5 746.66 306)" fill="#3E6030"/>
<rect width="10" height="20" transform="matrix(0.866025 0.5 0 1 738 311)" fill="#2B4520"/>
<rect width="10" height="20" transform="matrix(0.866025 -0.5 0 1 746.66 316)" fill="#1A2E15"/>
<rect width="10" height="10" transform="matrix(0.866025 0.5 -0.866025 0.5 746.66 306)" fill="#3E6030"/>
<rect width="10" height="20" transform="matrix(0.866025 0.5 0 1 738 311)" fill="#2B4520"/>
<rect width="10" height="20" transform="matrix(0.866025 -0.5 0 1 746.66 316)" fill="#1A2E15"/>
<rect width="10" height="10" transform="matrix(0.866025 0.5 -0.866025 0.5 659.66 704)" fill="#66BB6A"/>
<rect width="10" height="20" transform="matrix(0.866025 0.5 0 1 651 709)" fill="#388E3C"/>
<rect width="10" height="20" transform="matrix(0.866025 -0.5 0 1 659.66 714)" fill="#1B5E20"/>
<rect width="10" height="10" transform="matrix(0.866025 0.5 -0.866025 0.5 659.66 704)" fill="#66BB6A"/>
<rect width="10" height="20" transform="matrix(0.866025 0.5 0 1 651 709)" fill="#388E3C"/>
<rect width="10" height="20" transform="matrix(0.866025 -0.5 0 1 659.66 714)" fill="#1B5E20"/>
<rect width="10" height="10" transform="matrix(0.866025 0.5 -0.866025 0.5 223.66 587)" fill="#26A641"/>
<rect width="10" height="20" transform="matrix(0.866025 0.5 0 1 215 592)" fill="#26A641"/>
<rect width="10" height="20" transform="matrix(0.866025 -0.5 0 1 223.66 597)" fill="#006D32"/>
<rect width="10" height="10" transform="matrix(0.866025 0.5 -0.866025 0.5 223.66 587)" fill="#26A641"/>
<rect width="10" height="20" transform="matrix(0.866025 0.5 0 1 215 592)" fill="#26A641"/>
<rect width="10" height="20" transform="matrix(0.866025 -0.5 0 1 223.66 597)" fill="#006D32"/>
<rect width="10" height="10" transform="matrix(0.866025 0.5 -0.866025 0.5 83.6602 504)" fill="#3E6030"/>
<rect width="10" height="20" transform="matrix(0.866025 0.5 0 1 75 509)" fill="#2B4520"/>
<rect width="10" height="20" transform="matrix(0.866025 -0.5 0 1 83.6602 514)" fill="#1A2E15"/>
<rect width="10" height="10" transform="matrix(0.866025 0.5 -0.866025 0.5 83.6602 504)" fill="#3E6030"/>
<rect width="10" height="20" transform="matrix(0.866025 0.5 0 1 75 509)" fill="#2B4520"/>
<rect width="10" height="20" transform="matrix(0.866025 -0.5 0 1 83.6602 514)" fill="#1A2E15"/>
<rect width="10" height="10" transform="matrix(0.866025 0.5 -0.866025 0.5 605.66 577)" fill="#66BB6A"/>
<rect width="10" height="20" transform="matrix(0.866025 0.5 0 1 597 582)" fill="#388E3C"/>
<rect width="10" height="20" transform="matrix(0.866025 -0.5 0 1 605.66 587)" fill="#1B5E20"/>
<rect width="10" height="10" transform="matrix(0.866025 0.5 -0.866025 0.5 605.66 577)" fill="#66BB6A"/>
<rect width="10" height="20" transform="matrix(0.866025 0.5 0 1 597 582)" fill="#388E3C"/>
<rect width="10" height="20" transform="matrix(0.866025 -0.5 0 1 605.66 587)" fill="#1B5E20"/>
<rect width="10" height="10" transform="matrix(0.866025 0.5 -0.866025 0.5 819.66 709)" fill="#26A641"/>
<rect width="10" height="20" transform="matrix(0.866025 0.5 0 1 811 714)" fill="#26A641"/>
<rect width="10" height="20" transform="matrix(0.866025 -0.5 0 1 819.66 719)" fill="#006D32"/>
<rect width="10" height="10" transform="matrix(0.866025 0.5 -0.866025 0.5 819.66 709)" fill="#26A641"/>
<rect width="10" height="20" transform="matrix(0.866025 0.5 0 1 811 714)" fill="#26A641"/>
<rect width="10" height="20" transform="matrix(0.866025 -0.5 0 1 819.66 719)" fill="#006D32"/>
<rect width="10" height="10" transform="matrix(0.866025 0.5 -0.866025 0.5 555.66 768)" fill="#3E6030"/>
<rect width="10" height="20" transform="matrix(0.866025 0.5 0 1 547 773)" fill="#2B4520"/>
<rect width="10" height="20" transform="matrix(0.866025 -0.5 0 1 555.66 778)" fill="#1A2E15"/>
<rect width="10" height="10" transform="matrix(0.866025 0.5 -0.866025 0.5 555.66 768)" fill="#3E6030"/>
<rect width="10" height="20" transform="matrix(0.866025 0.5 0 1 547 773)" fill="#2B4520"/>
<rect width="10" height="20" transform="matrix(0.866025 -0.5 0 1 555.66 778)" fill="#1A2E15"/>
<rect width="10" height="10" transform="matrix(0.866025 0.5 -0.866025 0.5 661.66 835)" fill="#66BB6A"/>
<rect width="10" height="20" transform="matrix(0.866025 0.5 0 1 653 840)" fill="#388E3C"/>
<rect width="10" height="20" transform="matrix(0.866025 -0.5 0 1 661.66 845)" fill="#1B5E20"/>
<rect width="10" height="10" transform="matrix(0.866025 0.5 -0.866025 0.5 661.66 835)" fill="#66BB6A"/>
<rect width="10" height="20" transform="matrix(0.866025 0.5 0 1 653 840)" fill="#388E3C"/>
<rect width="10" height="20" transform="matrix(0.866025 -0.5 0 1 661.66 845)" fill="#1B5E20"/>
<rect width="10" height="10" transform="matrix(0.866025 0.5 -0.866025 0.5 1625.66 761)" fill="#26A641"/>
<rect width="10" height="20" transform="matrix(0.866025 0.5 0 1 1617 766)" fill="#26A641"/>
<rect width="10" height="20" transform="matrix(0.866025 -0.5 0 1 1625.66 771)" fill="#006D32"/>
<rect width="10" height="10" transform="matrix(0.866025 0.5 -0.866025 0.5 1625.66 761)" fill="#26A641"/>
<rect width="10" height="20" transform="matrix(0.866025 0.5 0 1 1617 766)" fill="#26A641"/>
<rect width="10" height="20" transform="matrix(0.866025 -0.5 0 1 1625.66 771)" fill="#006D32"/>
<rect width="10" height="10" transform="matrix(0.866025 0.5 -0.866025 0.5 466.66 729)" fill="#3E6030"/>
<rect width="10" height="20" transform="matrix(0.866025 0.5 0 1 458 734)" fill="#2B4520"/>
<rect width="10" height="20" transform="matrix(0.866025 -0.5 0 1 466.66 739)" fill="#1A2E15"/>
<rect width="10" height="10" transform="matrix(0.866025 0.5 -0.866025 0.5 466.66 729)" fill="#3E6030"/>
<rect width="10" height="20" transform="matrix(0.866025 0.5 0 1 458 734)" fill="#2B4520"/>
<rect width="10" height="20" transform="matrix(0.866025 -0.5 0 1 466.66 739)" fill="#1A2E15"/>
<rect width="10" height="10" transform="matrix(0.866025 0.5 -0.866025 0.5 1513.66 719)" fill="#66BB6A"/>
<rect width="10" height="20" transform="matrix(0.866025 0.5 0 1 1505 724)" fill="#388E3C"/>
<rect width="10" height="20" transform="matrix(0.866025 -0.5 0 1 1513.66 729)" fill="#1B5E20"/>
<rect width="10" height="10" transform="matrix(0.866025 0.5 -0.866025 0.5 1513.66 719)" fill="#66BB6A"/>
<rect width="10" height="20" transform="matrix(0.866025 0.5 0 1 1505 724)" fill="#388E3C"/>
<rect width="10" height="20" transform="matrix(0.866025 -0.5 0 1 1513.66 729)" fill="#1B5E20"/>
<rect width="10" height="10" transform="matrix(0.866025 0.5 -0.866025 0.5 774.66 874)" fill="#26A641"/>
<rect width="10" height="20" transform="matrix(0.866025 0.5 0 1 766 879)" fill="#26A641"/>
<rect width="10" height="20" transform="matrix(0.866025 -0.5 0 1 774.66 884)" fill="#006D32"/>
<rect width="10" height="10" transform="matrix(0.866025 0.5 -0.866025 0.5 774.66 874)" fill="#26A641"/>
<rect width="10" height="20" transform="matrix(0.866025 0.5 0 1 766 879)" fill="#26A641"/>
<rect width="10" height="20" transform="matrix(0.866025 -0.5 0 1 774.66 884)" fill="#006D32"/>
<rect width="10" height="10" transform="matrix(0.866025 0.5 -0.866025 0.5 898.66 786)" fill="#3E6030"/>
<rect width="10" height="20" transform="matrix(0.866025 0.5 0 1 890 791)" fill="#2B4520"/>
<rect width="10" height="20" transform="matrix(0.866025 -0.5 0 1 898.66 796)" fill="#1A2E15"/>
<rect width="10" height="10" transform="matrix(0.866025 0.5 -0.866025 0.5 898.66 786)" fill="#3E6030"/>
<rect width="10" height="20" transform="matrix(0.866025 0.5 0 1 890 791)" fill="#2B4520"/>
<rect width="10" height="20" transform="matrix(0.866025 -0.5 0 1 898.66 796)" fill="#1A2E15"/>
<rect width="10" height="10" transform="matrix(0.866025 0.5 -0.866025 0.5 851.66 944)" fill="#26A641"/>
<rect width="10" height="20" transform="matrix(0.866025 0.5 0 1 843 949)" fill="#26A641"/>
<rect width="10" height="20" transform="matrix(0.866025 -0.5 0 1 851.66 954)" fill="#006D32"/>
<rect width="10" height="10" transform="matrix(0.866025 0.5 -0.866025 0.5 851.66 944)" fill="#26A641"/>
<rect width="10" height="20" transform="matrix(0.866025 0.5 0 1 843 949)" fill="#26A641"/>
<rect width="10" height="20" transform="matrix(0.866025 -0.5 0 1 851.66 954)" fill="#006D32"/>
<rect width="10" height="10" transform="matrix(0.866025 0.5 -0.866025 0.5 1320.66 1006)" fill="#66BB6A"/>
<rect width="10" height="20" transform="matrix(0.866025 0.5 0 1 1312 1011)" fill="#388E3C"/>
<rect width="10" height="20" transform="matrix(0.866025 -0.5 0 1 1320.66 1016)" fill="#1B5E20"/>
<rect width="10" height="10" transform="matrix(0.866025 0.5 -0.866025 0.5 1320.66 1006)" fill="#66BB6A"/>
<rect width="10" height="20" transform="matrix(0.866025 0.5 0 1 1312 1011)" fill="#388E3C"/>
<rect width="10" height="20" transform="matrix(0.866025 -0.5 0 1 1320.66 1016)" fill="#1B5E20"/>
<rect width="10" height="10" transform="matrix(0.866025 0.5 -0.866025 0.5 990.66 971)" fill="#26A641"/>
<rect width="10" height="20" transform="matrix(0.866025 0.5 0 1 982 976)" fill="#26A641"/>
<rect width="10" height="20" transform="matrix(0.866025 -0.5 0 1 990.66 981)" fill="#006D32"/>
<rect width="10" height="10" transform="matrix(0.866025 0.5 -0.866025 0.5 990.66 971)" fill="#26A641"/>
<rect width="10" height="20" transform="matrix(0.866025 0.5 0 1 982 976)" fill="#26A641"/>
<rect width="10" height="20" transform="matrix(0.866025 -0.5 0 1 990.66 981)" fill="#006D32"/>
<rect width="10" height="10" transform="matrix(0.866025 0.5 -0.866025 0.5 1068.66 840)" fill="#3E6030"/>
<rect width="10" height="20" transform="matrix(0.866025 0.5 0 1 1060 845)" fill="#2B4520"/>
<rect width="10" height="20" transform="matrix(0.866025 -0.5 0 1 1068.66 850)" fill="#1A2E15"/>
<rect width="10" height="10" transform="matrix(0.866025 0.5 -0.866025 0.5 1068.66 840)" fill="#3E6030"/>
<rect width="10" height="20" transform="matrix(0.866025 0.5 0 1 1060 845)" fill="#2B4520"/>
<rect width="10" height="20" transform="matrix(0.866025 -0.5 0 1 1068.66 850)" fill="#1A2E15"/>
<rect width="10" height="10" transform="matrix(0.866025 0.5 -0.866025 0.5 1153.66 1121)" fill="#26A641"/>
<rect width="10" height="20" transform="matrix(0.866025 0.5 0 1 1145 1126)" fill="#26A641"/>
<rect width="10" height="20" transform="matrix(0.866025 -0.5 0 1 1153.66 1131)" fill="#006D32"/>
<rect width="10" height="10" transform="matrix(0.866025 0.5 -0.866025 0.5 1153.66 1121)" fill="#26A641"/>
<rect width="10" height="20" transform="matrix(0.866025 0.5 0 1 1145 1126)" fill="#26A641"/>
<rect width="10" height="20" transform="matrix(0.866025 -0.5 0 1 1153.66 1131)" fill="#006D32"/>
<rect width="10" height="10" transform="matrix(0.866025 0.5 -0.866025 0.5 1025.66 1051)" fill="#66BB6A"/>
<rect width="10" height="20" transform="matrix(0.866025 0.5 0 1 1017 1056)" fill="#388E3C"/>
<rect width="10" height="20" transform="matrix(0.866025 -0.5 0 1 1025.66 1061)" fill="#1B5E20"/>
<rect width="10" height="10" transform="matrix(0.866025 0.5 -0.866025 0.5 1025.66 1051)" fill="#66BB6A"/>
<rect width="10" height="20" transform="matrix(0.866025 0.5 0 1 1017 1056)" fill="#388E3C"/>
<rect width="10" height="20" transform="matrix(0.866025 -0.5 0 1 1025.66 1061)" fill="#1B5E20"/>
<rect width="10" height="10" transform="matrix(0.866025 0.5 -0.866025 0.5 729.66 249)" fill="#26A641"/>
<rect width="10" height="20" transform="matrix(0.866025 0.5 0 1 721 254)" fill="#26A641"/>
<rect width="10" height="20" transform="matrix(0.866025 -0.5 0 1 729.66 259)" fill="#006D32"/>
<rect width="10" height="10" transform="matrix(0.866025 0.5 -0.866025 0.5 729.66 249)" fill="#26A641"/>
<rect width="10" height="20" transform="matrix(0.866025 0.5 0 1 721 254)" fill="#26A641"/>
<rect width="10" height="20" transform="matrix(0.866025 -0.5 0 1 729.66 259)" fill="#006D32"/>
<rect width="10" height="10" transform="matrix(0.866025 0.5 -0.866025 0.5 1295.66 1204)" fill="#3E6030"/>
<rect width="10" height="20" transform="matrix(0.866025 0.5 0 1 1287 1209)" fill="#2B4520"/>
<rect width="10" height="20" transform="matrix(0.866025 -0.5 0 1 1295.66 1214)" fill="#1A2E15"/>
<rect width="10" height="10" transform="matrix(0.866025 0.5 -0.866025 0.5 1295.66 1204)" fill="#3E6030"/>
<rect width="10" height="20" transform="matrix(0.866025 0.5 0 1 1287 1209)" fill="#2B4520"/>
<rect width="10" height="20" transform="matrix(0.866025 -0.5 0 1 1295.66 1214)" fill="#1A2E15"/>
<rect width="10" height="10" transform="matrix(0.866025 0.5 -0.866025 0.5 1488.66 1081)" fill="#26A641"/>
<rect width="10" height="20" transform="matrix(0.866025 0.5 0 1 1480 1086)" fill="#26A641"/>
<rect width="10" height="20" transform="matrix(0.866025 -0.5 0 1 1488.66 1091)" fill="#006D32"/>
<rect width="10" height="10" transform="matrix(0.866025 0.5 -0.866025 0.5 1488.66 1081)" fill="#26A641"/>
<rect width="10" height="20" transform="matrix(0.866025 0.5 0 1 1480 1086)" fill="#26A641"/>
<rect width="10" height="20" transform="matrix(0.866025 -0.5 0 1 1488.66 1091)" fill="#006D32"/>
<rect width="10" height="10" transform="matrix(0.866025 0.5 -0.866025 0.5 1186.66 911)" fill="#66BB6A"/>
<rect width="10" height="20" transform="matrix(0.866025 0.5 0 1 1178 916)" fill="#388E3C"/>
<rect width="10" height="20" transform="matrix(0.866025 -0.5 0 1 1186.66 921)" fill="#1B5E20"/>
<rect width="10" height="10" transform="matrix(0.866025 0.5 -0.866025 0.5 1186.66 911)" fill="#66BB6A"/>
<rect width="10" height="20" transform="matrix(0.866025 0.5 0 1 1178 916)" fill="#388E3C"/>
<rect width="10" height="20" transform="matrix(0.866025 -0.5 0 1 1186.66 921)" fill="#1B5E20"/>
<rect width="10" height="10" transform="matrix(0.866025 0.5 -0.866025 0.5 1403.66 651)" fill="#26A641"/>
<rect width="10" height="20" transform="matrix(0.866025 0.5 0 1 1395 656)" fill="#26A641"/>
<rect width="10" height="20" transform="matrix(0.866025 -0.5 0 1 1403.66 661)" fill="#006D32"/>
<rect width="10" height="10" transform="matrix(0.866025 0.5 -0.866025 0.5 1403.66 651)" fill="#26A641"/>
<rect width="10" height="20" transform="matrix(0.866025 0.5 0 1 1395 656)" fill="#26A641"/>
<rect width="10" height="20" transform="matrix(0.866025 -0.5 0 1 1403.66 661)" fill="#006D32"/>
<rect width="10" height="10" transform="matrix(0.866025 0.5 -0.866025 0.5 631.66 221)" fill="#3E6030"/>
<rect width="10" height="20" transform="matrix(0.866025 0.5 0 1 623 226)" fill="#2B4520"/>
<rect width="10" height="20" transform="matrix(0.866025 -0.5 0 1 631.66 231)" fill="#1A2E15"/>
<rect width="10" height="10" transform="matrix(0.866025 0.5 -0.866025 0.5 631.66 221)" fill="#3E6030"/>
<rect width="10" height="20" transform="matrix(0.866025 0.5 0 1 623 226)" fill="#2B4520"/>
<rect width="10" height="20" transform="matrix(0.866025 -0.5 0 1 631.66 231)" fill="#1A2E15"/>
<rect width="10" height="10" transform="matrix(0.866025 0.5 -0.866025 0.5 867.66 364)" fill="#26A641"/>
<rect width="10" height="20" transform="matrix(0.866025 0.5 0 1 859 369)" fill="#26A641"/>
<rect width="10" height="20" transform="matrix(0.866025 -0.5 0 1 867.66 374)" fill="#006D32"/>
<rect width="10" height="10" transform="matrix(0.866025 0.5 -0.866025 0.5 867.66 364)" fill="#26A641"/>
<rect width="10" height="20" transform="matrix(0.866025 0.5 0 1 859 369)" fill="#26A641"/>
<rect width="10" height="20" transform="matrix(0.866025 -0.5 0 1 867.66 374)" fill="#006D32"/>
<rect width="10" height="10" transform="matrix(0.866025 0.5 -0.866025 0.5 1011.66 444)" fill="#66BB6A"/>
<rect width="10" height="20" transform="matrix(0.866025 0.5 0 1 1003 449)" fill="#388E3C"/>
<rect width="10" height="20" transform="matrix(0.866025 -0.5 0 1 1011.66 454)" fill="#1B5E20"/>
<rect width="10" height="10" transform="matrix(0.866025 0.5 -0.866025 0.5 1011.66 444)" fill="#66BB6A"/>
<rect width="10" height="20" transform="matrix(0.866025 0.5 0 1 1003 449)" fill="#388E3C"/>
<rect width="10" height="20" transform="matrix(0.866025 -0.5 0 1 1011.66 454)" fill="#1B5E20"/>
<rect width="10" height="10" transform="matrix(0.866025 0.5 -0.866025 0.5 1197.66 536)" fill="#26A641"/>
<rect width="10" height="20" transform="matrix(0.866025 0.5 0 1 1189 541)" fill="#26A641"/>
<rect width="10" height="20" transform="matrix(0.866025 -0.5 0 1 1197.66 546)" fill="#006D32"/>
<rect width="10" height="10" transform="matrix(0.866025 0.5 -0.866025 0.5 1197.66 536)" fill="#26A641"/>
<rect width="10" height="20" transform="matrix(0.866025 0.5 0 1 1189 541)" fill="#26A641"/>
<rect width="10" height="20" transform="matrix(0.866025 -0.5 0 1 1197.66 546)" fill="#006D32"/>
<rect width="10" height="10" transform="matrix(0.866025 0.5 -0.866025 0.5 1672.66 816)" fill="#66BB6A"/>
<rect width="10" height="20" transform="matrix(0.866025 0.5 0 1 1664 821)" fill="#388E3C"/>
<rect width="10" height="20" transform="matrix(0.866025 -0.5 0 1 1672.66 826)" fill="#1B5E20"/>
<rect width="10" height="10" transform="matrix(0.866025 0.5 -0.866025 0.5 1672.66 816)" fill="#66BB6A"/>
<rect width="10" height="20" transform="matrix(0.866025 0.5 0 1 1664 821)" fill="#388E3C"/>
<rect width="10" height="20" transform="matrix(0.866025 -0.5 0 1 1672.66 826)" fill="#1B5E20"/>
<rect width="10" height="10" transform="matrix(0.866025 0.5 -0.866025 0.5 1774.66 845)" fill="#26A641"/>
<rect width="10" height="20" transform="matrix(0.866025 0.5 0 1 1766 850)" fill="#26A641"/>
<rect width="10" height="20" transform="matrix(0.866025 -0.5 0 1 1774.66 855)" fill="#006D32"/>
<rect width="10" height="10" transform="matrix(0.866025 0.5 -0.866025 0.5 1774.66 845)" fill="#26A641"/>
<rect width="10" height="20" transform="matrix(0.866025 0.5 0 1 1766 850)" fill="#26A641"/>
<rect width="10" height="20" transform="matrix(0.866025 -0.5 0 1 1774.66 855)" fill="#006D32"/>
<rect width="10" height="10" transform="matrix(0.866025 0.5 -0.866025 0.5 1792.66 904)" fill="#66BB6A"/>
<rect width="10" height="20" transform="matrix(0.866025 0.5 0 1 1784 909)" fill="#388E3C"/>
<rect width="10" height="20" transform="matrix(0.866025 -0.5 0 1 1792.66 914)" fill="#1B5E20"/>
<rect width="10" height="10" transform="matrix(0.866025 0.5 -0.866025 0.5 1792.66 904)" fill="#66BB6A"/>
<rect width="10" height="20" transform="matrix(0.866025 0.5 0 1 1784 909)" fill="#388E3C"/>
<rect width="10" height="20" transform="matrix(0.866025 -0.5 0 1 1792.66 914)" fill="#1B5E20"/>
<rect width="10" height="10" transform="matrix(0.866025 0.5 -0.866025 0.5 1078.66 462)" fill="#26A641"/>
<rect width="10" height="20" transform="matrix(0.866025 0.5 0 1 1070 467)" fill="#26A641"/>
<rect width="10" height="20" transform="matrix(0.866025 -0.5 0 1 1078.66 472)" fill="#006D32"/>
<rect width="10" height="10" transform="matrix(0.866025 0.5 -0.866025 0.5 1078.66 462)" fill="#26A641"/>
<rect width="10" height="20" transform="matrix(0.866025 0.5 0 1 1070 467)" fill="#26A641"/>
<rect width="10" height="20" transform="matrix(0.866025 -0.5 0 1 1078.66 472)" fill="#006D32"/>
<rect width="10" height="10" transform="matrix(0.866025 0.5 -0.866025 0.5 1297.66 594)" fill="#66BB6A"/>
<rect width="10" height="20" transform="matrix(0.866025 0.5 0 1 1289 599)" fill="#388E3C"/>
<rect width="10" height="20" transform="matrix(0.866025 -0.5 0 1 1297.66 604)" fill="#1B5E20"/>
<rect width="10" height="10" transform="matrix(0.866025 0.5 -0.866025 0.5 1297.66 594)" fill="#66BB6A"/>
<rect width="10" height="20" transform="matrix(0.866025 0.5 0 1 1289 599)" fill="#388E3C"/>
<rect width="10" height="20" transform="matrix(0.866025 -0.5 0 1 1297.66 604)" fill="#1B5E20"/>
<rect width="10" height="10" transform="matrix(0.866025 0.5 -0.866025 0.5 936.66 394)" fill="#26A641"/>
<rect width="10" height="20" transform="matrix(0.866025 0.5 0 1 928 399)" fill="#26A641"/>
<rect width="10" height="20" transform="matrix(0.866025 -0.5 0 1 936.66 404)" fill="#006D32"/>
<rect width="10" height="10" transform="matrix(0.866025 0.5 -0.866025 0.5 936.66 394)" fill="#26A641"/>
<rect width="10" height="20" transform="matrix(0.866025 0.5 0 1 928 399)" fill="#26A641"/>
<rect width="10" height="20" transform="matrix(0.866025 -0.5 0 1 936.66 404)" fill="#006D32"/>
<rect width="10" height="10" transform="matrix(0.866025 0.5 -0.866025 0.5 1003.66 405)" fill="#66BB6A"/>
<rect width="10" height="20" transform="matrix(0.866025 0.5 0 1 995 410)" fill="#388E3C"/>
<rect width="10" height="20" transform="matrix(0.866025 -0.5 0 1 1003.66 415)" fill="#1B5E20"/>
<rect width="10" height="10" transform="matrix(0.866025 0.5 -0.866025 0.5 1003.66 405)" fill="#66BB6A"/>
<rect width="10" height="20" transform="matrix(0.866025 0.5 0 1 995 410)" fill="#388E3C"/>
<rect width="10" height="20" transform="matrix(0.866025 -0.5 0 1 1003.66 415)" fill="#1B5E20"/>
<rect width="10" height="10" transform="matrix(0.866025 0.5 -0.866025 0.5 284.66 395)" fill="#26A641"/>
<rect width="10" height="20" transform="matrix(0.866025 0.5 0 1 276 400)" fill="#26A641"/>
<rect width="10" height="20" transform="matrix(0.866025 -0.5 0 1 284.66 405)" fill="#006D32"/>
<rect width="10" height="10" transform="matrix(0.866025 0.5 -0.866025 0.5 284.66 395)" fill="#26A641"/>
<rect width="10" height="20" transform="matrix(0.866025 0.5 0 1 276 400)" fill="#26A641"/>
<rect width="10" height="20" transform="matrix(0.866025 -0.5 0 1 284.66 405)" fill="#006D32"/>
<rect width="10" height="10" transform="matrix(0.866025 0.5 -0.866025 0.5 504.66 529)" fill="#3E6030"/>
<rect width="10" height="20" transform="matrix(0.866025 0.5 0 1 496 534)" fill="#2B4520"/>
<rect width="10" height="20" transform="matrix(0.866025 -0.5 0 1 504.66 539)" fill="#1A2E15"/>
<rect width="10" height="10" transform="matrix(0.866025 0.5 -0.866025 0.5 504.66 529)" fill="#3E6030"/>
<rect width="10" height="20" transform="matrix(0.866025 0.5 0 1 496 534)" fill="#2B4520"/>
<rect width="10" height="20" transform="matrix(0.866025 -0.5 0 1 504.66 539)" fill="#1A2E15"/>
<rect width="10" height="10" transform="matrix(0.866025 0.5 -0.866025 0.5 359.66 662)" fill="#66BB6A"/>
<rect width="10" height="20" transform="matrix(0.866025 0.5 0 1 351 667)" fill="#388E3C"/>
<rect width="10" height="20" transform="matrix(0.866025 -0.5 0 1 359.66 672)" fill="#1B5E20"/>
<rect width="10" height="10" transform="matrix(0.866025 0.5 -0.866025 0.5 359.66 662)" fill="#66BB6A"/>
<rect width="10" height="20" transform="matrix(0.866025 0.5 0 1 351 667)" fill="#388E3C"/>
<rect width="10" height="20" transform="matrix(0.866025 -0.5 0 1 359.66 672)" fill="#1B5E20"/>
<rect width="10" height="10" transform="matrix(0.866025 0.5 -0.866025 0.5 256.66 500)" fill="#26A641"/>
<rect width="10" height="20" transform="matrix(0.866025 0.5 0 1 248 505)" fill="#26A641"/>
<rect width="10" height="20" transform="matrix(0.866025 -0.5 0 1 256.66 510)" fill="#006D32"/>
<rect width="10" height="10" transform="matrix(0.866025 0.5 -0.866025 0.5 256.66 500)" fill="#26A641"/>
<rect width="10" height="20" transform="matrix(0.866025 0.5 0 1 248 505)" fill="#26A641"/>
<rect width="10" height="20" transform="matrix(0.866025 -0.5 0 1 256.66 510)" fill="#006D32"/>
<rect width="10" height="10" transform="matrix(0.866025 0.5 -0.866025 0.5 712.66 650)" fill="#3E6030"/>
<rect width="10" height="20" transform="matrix(0.866025 0.5 0 1 704 655)" fill="#2B4520"/>
<rect width="10" height="20" transform="matrix(0.866025 -0.5 0 1 712.66 660)" fill="#1A2E15"/>
<rect width="10" height="10" transform="matrix(0.866025 0.5 -0.866025 0.5 712.66 650)" fill="#3E6030"/>
<rect width="10" height="20" transform="matrix(0.866025 0.5 0 1 704 655)" fill="#2B4520"/>
<rect width="10" height="20" transform="matrix(0.866025 -0.5 0 1 712.66 660)" fill="#1A2E15"/>
<rect width="10" height="10" transform="matrix(0.866025 0.5 -0.866025 0.5 414.66 471)" fill="#66BB6A"/>
<rect width="10" height="20" transform="matrix(0.866025 0.5 0 1 406 476)" fill="#388E3C"/>
<rect width="10" height="20" transform="matrix(0.866025 -0.5 0 1 414.66 481)" fill="#1B5E20"/>
<rect width="10" height="10" transform="matrix(0.866025 0.5 -0.866025 0.5 414.66 471)" fill="#66BB6A"/>
<rect width="10" height="20" transform="matrix(0.866025 0.5 0 1 406 476)" fill="#388E3C"/>
<rect width="10" height="20" transform="matrix(0.866025 -0.5 0 1 414.66 481)" fill="#1B5E20"/>
<rect width="10" height="10" transform="matrix(0.866025 0.5 -0.866025 0.5 2064.66 701)" fill="#66BB6A"/>
<rect width="10" height="20" transform="matrix(0.866025 0.5 0 1 2056 706)" fill="#388E3C"/>
<rect width="10" height="20" transform="matrix(0.866025 -0.5 0 1 2064.66 711)" fill="#1B5E20"/>
<rect width="10" height="10" transform="matrix(0.866025 0.5 -0.866025 0.5 2064.66 701)" fill="#66BB6A"/>
<rect width="10" height="20" transform="matrix(0.866025 0.5 0 1 2056 706)" fill="#388E3C"/>
<rect width="10" height="20" transform="matrix(0.866025 -0.5 0 1 2064.66 711)" fill="#1B5E20"/>
<rect width="10" height="10" transform="matrix(0.866025 0.5 -0.866025 0.5 1885.66 596)" fill="#66BB6A"/>
<rect width="10" height="20" transform="matrix(0.866025 0.5 0 1 1877 601)" fill="#388E3C"/>
<rect width="10" height="20" transform="matrix(0.866025 -0.5 0 1 1885.66 606)" fill="#1B5E20"/>
<rect width="10" height="10" transform="matrix(0.866025 0.5 -0.866025 0.5 1885.66 596)" fill="#66BB6A"/>
<rect width="10" height="20" transform="matrix(0.866025 0.5 0 1 1877 601)" fill="#388E3C"/>
<rect width="10" height="20" transform="matrix(0.866025 -0.5 0 1 1885.66 606)" fill="#1B5E20"/>
<rect width="10" height="10" transform="matrix(0.866025 0.5 -0.866025 0.5 1934.66 621)" fill="#66BB6A"/>
<rect width="10" height="20" transform="matrix(0.866025 0.5 0 1 1926 626)" fill="#388E3C"/>
<rect width="10" height="20" transform="matrix(0.866025 -0.5 0 1 1934.66 631)" fill="#1B5E20"/>
<rect width="10" height="10" transform="matrix(0.866025 0.5 -0.866025 0.5 1934.66 621)" fill="#66BB6A"/>
<rect width="10" height="20" transform="matrix(0.866025 0.5 0 1 1926 626)" fill="#388E3C"/>
<rect width="10" height="20" transform="matrix(0.866025 -0.5 0 1 1934.66 631)" fill="#1B5E20"/>
<rect width="10" height="10" transform="matrix(0.866025 0.5 -0.866025 0.5 2018.66 661)" fill="#66BB6A"/>
<rect width="10" height="20" transform="matrix(0.866025 0.5 0 1 2010 666)" fill="#388E3C"/>
<rect width="10" height="20" transform="matrix(0.866025 -0.5 0 1 2018.66 671)" fill="#1B5E20"/>
<rect width="10" height="10" transform="matrix(0.866025 0.5 -0.866025 0.5 2018.66 661)" fill="#66BB6A"/>
<rect width="10" height="20" transform="matrix(0.866025 0.5 0 1 2010 666)" fill="#388E3C"/>
<rect width="10" height="20" transform="matrix(0.866025 -0.5 0 1 2018.66 671)" fill="#1B5E20"/>
<rect width="10" height="10" transform="matrix(0.866025 0.5 -0.866025 0.5 1978.66 646)" fill="#66BB6A"/>
<rect width="10" height="20" transform="matrix(0.866025 0.5 0 1 1970 651)" fill="#388E3C"/>
<rect width="10" height="20" transform="matrix(0.866025 -0.5 0 1 1978.66 656)" fill="#1B5E20"/>
<rect width="10" height="10" transform="matrix(0.866025 0.5 -0.866025 0.5 1978.66 646)" fill="#66BB6A"/>
<rect width="10" height="20" transform="matrix(0.866025 0.5 0 1 1970 651)" fill="#388E3C"/>
<rect width="10" height="20" transform="matrix(0.866025 -0.5 0 1 1978.66 656)" fill="#1B5E20"/>
<rect width="10" height="10" transform="matrix(0.866025 0.5 -0.866025 0.5 2005.66 701)" fill="#66BB6A"/>
<rect width="10" height="20" transform="matrix(0.866025 0.5 0 1 1997 706)" fill="#388E3C"/>
<rect width="10" height="20" transform="matrix(0.866025 -0.5 0 1 2005.66 711)" fill="#1B5E20"/>
<rect width="10" height="10" transform="matrix(0.866025 0.5 -0.866025 0.5 2005.66 701)" fill="#66BB6A"/>
<rect width="10" height="20" transform="matrix(0.866025 0.5 0 1 1997 706)" fill="#388E3C"/>
<rect width="10" height="20" transform="matrix(0.866025 -0.5 0 1 2005.66 711)" fill="#1B5E20"/>
<rect width="10" height="10" transform="matrix(0.866025 0.5 -0.866025 0.5 830.66 36)" fill="#3E6030"/>
<rect width="10" height="20" transform="matrix(0.866025 0.5 0 1 822 41)" fill="#2B4520"/>
<rect width="10" height="20" transform="matrix(0.866025 -0.5 0 1 830.66 46)" fill="#1A2E15"/>
<rect width="10" height="10" transform="matrix(0.866025 0.5 -0.866025 0.5 830.66 36)" fill="#3E6030"/>
<rect width="10" height="20" transform="matrix(0.866025 0.5 0 1 822 41)" fill="#2B4520"/>
<rect width="10" height="20" transform="matrix(0.866025 -0.5 0 1 830.66 46)" fill="#1A2E15"/>
<rect width="10" height="10" transform="matrix(0.866025 0.5 -0.866025 0.5 870.66 51)" fill="#3E6030"/>
<rect width="10" height="20" transform="matrix(0.866025 0.5 0 1 862 56)" fill="#2B4520"/>
<rect width="10" height="20" transform="matrix(0.866025 -0.5 0 1 870.66 61)" fill="#1A2E15"/>
<rect width="10" height="10" transform="matrix(0.866025 0.5 -0.866025 0.5 870.66 51)" fill="#3E6030"/>
<rect width="10" height="20" transform="matrix(0.866025 0.5 0 1 862 56)" fill="#2B4520"/>
<rect width="10" height="20" transform="matrix(0.866025 -0.5 0 1 870.66 61)" fill="#1A2E15"/>
<rect width="10" height="10" transform="matrix(0.866025 0.5 -0.866025 0.5 995.66 116)" fill="#3E6030"/>
<rect width="10" height="20" transform="matrix(0.866025 0.5 0 1 987 121)" fill="#2B4520"/>
<rect width="10" height="20" transform="matrix(0.866025 -0.5 0 1 995.66 126)" fill="#1A2E15"/>
<rect width="10" height="10" transform="matrix(0.866025 0.5 -0.866025 0.5 995.66 116)" fill="#3E6030"/>
<rect width="10" height="20" transform="matrix(0.866025 0.5 0 1 987 121)" fill="#2B4520"/>
<rect width="10" height="20" transform="matrix(0.866025 -0.5 0 1 995.66 126)" fill="#1A2E15"/>
<rect width="10" height="20" transform="matrix(0.866025 -0.5 0 1 1041.66 121)" fill="#1A2E15"/>
<rect width="10" height="10" transform="matrix(0.866025 0.5 -0.866025 0.5 1041.66 111)" fill="#3E6030"/>
<rect width="10" height="20" transform="matrix(0.866025 0.5 0 1 1033 116)" fill="#2B4520"/>
<rect width="10" height="10" transform="matrix(0.866025 0.5 -0.866025 0.5 1041.66 111)" fill="#3E6030"/>
<rect width="10" height="20" transform="matrix(0.866025 0.5 0 1 1033 116)" fill="#2B4520"/>
<rect width="10" height="20" transform="matrix(0.866025 -0.5 0 1 1041.66 121)" fill="#1A2E15"/>
<rect width="10" height="10" transform="matrix(0.866025 0.5 -0.866025 0.5 995.66 86)" fill="#66BB6A"/>
<rect width="10" height="20" transform="matrix(0.866025 0.5 0 1 987 91)" fill="#388E3C"/>
<rect width="10" height="20" transform="matrix(0.866025 -0.5 0 1 995.66 96)" fill="#1B5E20"/>
<rect width="10" height="10" transform="matrix(0.866025 0.5 -0.866025 0.5 995.66 86)" fill="#66BB6A"/>
<rect width="10" height="20" transform="matrix(0.866025 0.5 0 1 987 91)" fill="#388E3C"/>
<rect width="10" height="20" transform="matrix(0.866025 -0.5 0 1 995.66 96)" fill="#1B5E20"/>
<rect width="10" height="10" transform="matrix(0.866025 0.5 -0.866025 0.5 865.66 6)" fill="#66BB6A"/>
<rect width="10" height="20" transform="matrix(0.866025 0.5 0 1 857 11)" fill="#388E3C"/>
<rect width="10" height="20" transform="matrix(0.866025 -0.5 0 1 865.66 16)" fill="#1B5E20"/>
<rect width="10" height="10" transform="matrix(0.866025 0.5 -0.866025 0.5 865.66 6)" fill="#66BB6A"/>
<rect width="10" height="20" transform="matrix(0.866025 0.5 0 1 857 11)" fill="#388E3C"/>
<rect width="10" height="20" transform="matrix(0.866025 -0.5 0 1 865.66 16)" fill="#1B5E20"/>
<rect width="10" height="10" transform="matrix(0.866025 0.5 -0.866025 0.5 949.66 46)" fill="#66BB6A"/>
<rect width="10" height="20" transform="matrix(0.866025 0.5 0 1 941 51)" fill="#388E3C"/>
<rect width="10" height="20" transform="matrix(0.866025 -0.5 0 1 949.66 56)" fill="#1B5E20"/>
<rect width="10" height="10" transform="matrix(0.866025 0.5 -0.866025 0.5 949.66 46)" fill="#66BB6A"/>
<rect width="10" height="20" transform="matrix(0.866025 0.5 0 1 941 51)" fill="#388E3C"/>
<rect width="10" height="20" transform="matrix(0.866025 -0.5 0 1 949.66 56)" fill="#1B5E20"/>
<rect width="10" height="10" transform="matrix(0.866025 0.5 -0.866025 0.5 909.66 31)" fill="#66BB6A"/>
<rect width="10" height="20" transform="matrix(0.866025 0.5 0 1 901 36)" fill="#388E3C"/>
<rect width="10" height="20" transform="matrix(0.866025 -0.5 0 1 909.66 41)" fill="#1B5E20"/>
<rect width="10" height="10" transform="matrix(0.866025 0.5 -0.866025 0.5 909.66 31)" fill="#66BB6A"/>
<rect width="10" height="20" transform="matrix(0.866025 0.5 0 1 901 36)" fill="#388E3C"/>
<rect width="10" height="20" transform="matrix(0.866025 -0.5 0 1 909.66 41)" fill="#1B5E20"/>
<rect width="10" height="10" transform="matrix(0.866025 0.5 -0.866025 0.5 936.66 86)" fill="#66BB6A"/>
<rect width="10" height="20" transform="matrix(0.866025 0.5 0 1 928 91)" fill="#388E3C"/>
<rect width="10" height="20" transform="matrix(0.866025 -0.5 0 1 936.66 96)" fill="#1B5E20"/>
<rect width="10" height="10" transform="matrix(0.866025 0.5 -0.866025 0.5 936.66 86)" fill="#66BB6A"/>
<rect width="10" height="20" transform="matrix(0.866025 0.5 0 1 928 91)" fill="#388E3C"/>
<rect width="10" height="20" transform="matrix(0.866025 -0.5 0 1 936.66 96)" fill="#1B5E20"/>
<rect width="10" height="10" transform="matrix(0.866025 0.5 -0.866025 0.5 1091.66 196)" fill="#3E6030"/>
<rect width="10" height="20" transform="matrix(0.866025 0.5 0 1 1083 201)" fill="#2B4520"/>
<rect width="10" height="20" transform="matrix(0.866025 -0.5 0 1 1091.66 206)" fill="#1A2E15"/>
<rect width="10" height="10" transform="matrix(0.866025 0.5 -0.866025 0.5 1091.66 196)" fill="#3E6030"/>
<rect width="10" height="20" transform="matrix(0.866025 0.5 0 1 1083 201)" fill="#2B4520"/>
<rect width="10" height="20" transform="matrix(0.866025 -0.5 0 1 1091.66 206)" fill="#1A2E15"/>
<rect width="10" height="10" transform="matrix(0.866025 0.5 -0.866025 0.5 1131.66 211)" fill="#3E6030"/>
<rect width="10" height="20" transform="matrix(0.866025 0.5 0 1 1123 216)" fill="#2B4520"/>
<rect width="10" height="20" transform="matrix(0.866025 -0.5 0 1 1131.66 221)" fill="#1A2E15"/>
<rect width="10" height="10" transform="matrix(0.866025 0.5 -0.866025 0.5 1131.66 211)" fill="#3E6030"/>
<rect width="10" height="20" transform="matrix(0.866025 0.5 0 1 1123 216)" fill="#2B4520"/>
<rect width="10" height="20" transform="matrix(0.866025 -0.5 0 1 1131.66 221)" fill="#1A2E15"/>
<rect width="10" height="10" transform="matrix(0.866025 0.5 -0.866025 0.5 1256.66 276)" fill="#3E6030"/>
<rect width="10" height="20" transform="matrix(0.866025 0.5 0 1 1248 281)" fill="#2B4520"/>
<rect width="10" height="20" transform="matrix(0.866025 -0.5 0 1 1256.66 286)" fill="#1A2E15"/>
<rect width="10" height="10" transform="matrix(0.866025 0.5 -0.866025 0.5 1256.66 276)" fill="#3E6030"/>
<rect width="10" height="20" transform="matrix(0.866025 0.5 0 1 1248 281)" fill="#2B4520"/>
<rect width="10" height="20" transform="matrix(0.866025 -0.5 0 1 1256.66 286)" fill="#1A2E15"/>
<rect width="10" height="20" transform="matrix(0.866025 -0.5 0 1 1302.66 281)" fill="#1A2E15"/>
<rect width="10" height="10" transform="matrix(0.866025 0.5 -0.866025 0.5 1302.66 271)" fill="#3E6030"/>
<rect width="10" height="20" transform="matrix(0.866025 0.5 0 1 1294 276)" fill="#2B4520"/>
<rect width="10" height="10" transform="matrix(0.866025 0.5 -0.866025 0.5 1302.66 271)" fill="#3E6030"/>
<rect width="10" height="20" transform="matrix(0.866025 0.5 0 1 1294 276)" fill="#2B4520"/>
<rect width="10" height="20" transform="matrix(0.866025 -0.5 0 1 1302.66 281)" fill="#1A2E15"/>
<rect width="10" height="10" transform="matrix(0.866025 0.5 -0.866025 0.5 1256.66 246)" fill="#66BB6A"/>
<rect width="10" height="20" transform="matrix(0.866025 0.5 0 1 1248 251)" fill="#388E3C"/>
<rect width="10" height="20" transform="matrix(0.866025 -0.5 0 1 1256.66 256)" fill="#1B5E20"/>
<rect width="10" height="10" transform="matrix(0.866025 0.5 -0.866025 0.5 1256.66 246)" fill="#66BB6A"/>
<rect width="10" height="20" transform="matrix(0.866025 0.5 0 1 1248 251)" fill="#388E3C"/>
<rect width="10" height="20" transform="matrix(0.866025 -0.5 0 1 1256.66 256)" fill="#1B5E20"/>
<rect width="10" height="10" transform="matrix(0.866025 0.5 -0.866025 0.5 1077.66 141)" fill="#66BB6A"/>
<rect width="10" height="20" transform="matrix(0.866025 0.5 0 1 1069 146)" fill="#388E3C"/>
<rect width="10" height="20" transform="matrix(0.866025 -0.5 0 1 1077.66 151)" fill="#1B5E20"/>
<rect width="10" height="10" transform="matrix(0.866025 0.5 -0.866025 0.5 1077.66 141)" fill="#66BB6A"/>
<rect width="10" height="20" transform="matrix(0.866025 0.5 0 1 1069 146)" fill="#388E3C"/>
<rect width="10" height="20" transform="matrix(0.866025 -0.5 0 1 1077.66 151)" fill="#1B5E20"/>
<rect width="10" height="10" transform="matrix(0.866025 0.5 -0.866025 0.5 1126.66 166)" fill="#66BB6A"/>
<rect width="10" height="20" transform="matrix(0.866025 0.5 0 1 1118 171)" fill="#388E3C"/>
<rect width="10" height="20" transform="matrix(0.866025 -0.5 0 1 1126.66 176)" fill="#1B5E20"/>
<rect width="10" height="10" transform="matrix(0.866025 0.5 -0.866025 0.5 1126.66 166)" fill="#66BB6A"/>
<rect width="10" height="20" transform="matrix(0.866025 0.5 0 1 1118 171)" fill="#388E3C"/>
<rect width="10" height="20" transform="matrix(0.866025 -0.5 0 1 1126.66 176)" fill="#1B5E20"/>
<rect width="10" height="10" transform="matrix(0.866025 0.5 -0.866025 0.5 1210.66 206)" fill="#66BB6A"/>
<rect width="10" height="20" transform="matrix(0.866025 0.5 0 1 1202 211)" fill="#388E3C"/>
<rect width="10" height="20" transform="matrix(0.866025 -0.5 0 1 1210.66 216)" fill="#1B5E20"/>
<rect width="10" height="10" transform="matrix(0.866025 0.5 -0.866025 0.5 1210.66 206)" fill="#66BB6A"/>
<rect width="10" height="20" transform="matrix(0.866025 0.5 0 1 1202 211)" fill="#388E3C"/>
<rect width="10" height="20" transform="matrix(0.866025 -0.5 0 1 1210.66 216)" fill="#1B5E20"/>
<rect width="10" height="10" transform="matrix(0.866025 0.5 -0.866025 0.5 1170.66 191)" fill="#66BB6A"/>
<rect width="10" height="20" transform="matrix(0.866025 0.5 0 1 1162 196)" fill="#388E3C"/>
<rect width="10" height="20" transform="matrix(0.866025 -0.5 0 1 1170.66 201)" fill="#1B5E20"/>
<rect width="10" height="10" transform="matrix(0.866025 0.5 -0.866025 0.5 1170.66 191)" fill="#66BB6A"/>
<rect width="10" height="20" transform="matrix(0.866025 0.5 0 1 1162 196)" fill="#388E3C"/>
<rect width="10" height="20" transform="matrix(0.866025 -0.5 0 1 1170.66 201)" fill="#1B5E20"/>
<rect width="10" height="10" transform="matrix(0.866025 0.5 -0.866025 0.5 1197.66 246)" fill="#66BB6A"/>
<rect width="10" height="20" transform="matrix(0.866025 0.5 0 1 1189 251)" fill="#388E3C"/>
<rect width="10" height="20" transform="matrix(0.866025 -0.5 0 1 1197.66 256)" fill="#1B5E20"/>
<rect width="10" height="10" transform="matrix(0.866025 0.5 -0.866025 0.5 1197.66 246)" fill="#66BB6A"/>
<rect width="10" height="20" transform="matrix(0.866025 0.5 0 1 1189 251)" fill="#388E3C"/>
<rect width="10" height="20" transform="matrix(0.866025 -0.5 0 1 1197.66 256)" fill="#1B5E20"/>
<rect width="10" height="10" transform="matrix(0.866025 0.5 -0.866025 0.5 1361.66 351)" fill="#3E6030"/>
<rect width="10" height="20" transform="matrix(0.866025 0.5 0 1 1353 356)" fill="#2B4520"/>
<rect width="10" height="20" transform="matrix(0.866025 -0.5 0 1 1361.66 361)" fill="#1A2E15"/>
<rect width="10" height="10" transform="matrix(0.866025 0.5 -0.866025 0.5 1361.66 351)" fill="#3E6030"/>
<rect width="10" height="20" transform="matrix(0.866025 0.5 0 1 1353 356)" fill="#2B4520"/>
<rect width="10" height="20" transform="matrix(0.866025 -0.5 0 1 1361.66 361)" fill="#1A2E15"/>
<rect width="10" height="10" transform="matrix(0.866025 0.5 -0.866025 0.5 1401.66 366)" fill="#3E6030"/>
<rect width="10" height="20" transform="matrix(0.866025 0.5 0 1 1393 371)" fill="#2B4520"/>
<rect width="10" height="20" transform="matrix(0.866025 -0.5 0 1 1401.66 376)" fill="#1A2E15"/>
<rect width="10" height="10" transform="matrix(0.866025 0.5 -0.866025 0.5 1401.66 366)" fill="#3E6030"/>
<rect width="10" height="20" transform="matrix(0.866025 0.5 0 1 1393 371)" fill="#2B4520"/>
<rect width="10" height="20" transform="matrix(0.866025 -0.5 0 1 1401.66 376)" fill="#1A2E15"/>
<rect width="10" height="10" transform="matrix(0.866025 0.5 -0.866025 0.5 1526.66 431)" fill="#3E6030"/>
<rect width="10" height="20" transform="matrix(0.866025 0.5 0 1 1518 436)" fill="#2B4520"/>
<rect width="10" height="20" transform="matrix(0.866025 -0.5 0 1 1526.66 441)" fill="#1A2E15"/>
<rect width="10" height="10" transform="matrix(0.866025 0.5 -0.866025 0.5 1526.66 431)" fill="#3E6030"/>
<rect width="10" height="20" transform="matrix(0.866025 0.5 0 1 1518 436)" fill="#2B4520"/>
<rect width="10" height="20" transform="matrix(0.866025 -0.5 0 1 1526.66 441)" fill="#1A2E15"/>
<rect width="10" height="20" transform="matrix(0.866025 -0.5 0 1 1572.66 436)" fill="#1A2E15"/>
<rect width="10" height="10" transform="matrix(0.866025 0.5 -0.866025 0.5 1572.66 426)" fill="#3E6030"/>
<rect width="10" height="20" transform="matrix(0.866025 0.5 0 1 1564 431)" fill="#2B4520"/>
<rect width="10" height="10" transform="matrix(0.866025 0.5 -0.866025 0.5 1572.66 426)" fill="#3E6030"/>
<rect width="10" height="20" transform="matrix(0.866025 0.5 0 1 1564 431)" fill="#2B4520"/>
<rect width="10" height="20" transform="matrix(0.866025 -0.5 0 1 1572.66 436)" fill="#1A2E15"/>
<rect width="10" height="10" transform="matrix(0.866025 0.5 -0.866025 0.5 1526.66 401)" fill="#66BB6A"/>
<rect width="10" height="20" transform="matrix(0.866025 0.5 0 1 1518 406)" fill="#388E3C"/>
<rect width="10" height="20" transform="matrix(0.866025 -0.5 0 1 1526.66 411)" fill="#1B5E20"/>
<rect width="10" height="10" transform="matrix(0.866025 0.5 -0.866025 0.5 1526.66 401)" fill="#66BB6A"/>
<rect width="10" height="20" transform="matrix(0.866025 0.5 0 1 1518 406)" fill="#388E3C"/>
<rect width="10" height="20" transform="matrix(0.866025 -0.5 0 1 1526.66 411)" fill="#1B5E20"/>
<rect width="10" height="10" transform="matrix(0.866025 0.5 -0.866025 0.5 1347.66 296)" fill="#66BB6A"/>
<rect width="10" height="20" transform="matrix(0.866025 0.5 0 1 1339 301)" fill="#388E3C"/>
<rect width="10" height="20" transform="matrix(0.866025 -0.5 0 1 1347.66 306)" fill="#1B5E20"/>
<rect width="10" height="10" transform="matrix(0.866025 0.5 -0.866025 0.5 1347.66 296)" fill="#66BB6A"/>
<rect width="10" height="20" transform="matrix(0.866025 0.5 0 1 1339 301)" fill="#388E3C"/>
<rect width="10" height="20" transform="matrix(0.866025 -0.5 0 1 1347.66 306)" fill="#1B5E20"/>
<rect width="10" height="10" transform="matrix(0.866025 0.5 -0.866025 0.5 1396.66 321)" fill="#66BB6A"/>
<rect width="10" height="20" transform="matrix(0.866025 0.5 0 1 1388 326)" fill="#388E3C"/>
<rect width="10" height="20" transform="matrix(0.866025 -0.5 0 1 1396.66 331)" fill="#1B5E20"/>
<rect width="10" height="10" transform="matrix(0.866025 0.5 -0.866025 0.5 1396.66 321)" fill="#66BB6A"/>
<rect width="10" height="20" transform="matrix(0.866025 0.5 0 1 1388 326)" fill="#388E3C"/>
<rect width="10" height="20" transform="matrix(0.866025 -0.5 0 1 1396.66 331)" fill="#1B5E20"/>
<rect width="10" height="10" transform="matrix(0.866025 0.5 -0.866025 0.5 1480.66 361)" fill="#66BB6A"/>
<rect width="10" height="20" transform="matrix(0.866025 0.5 0 1 1472 366)" fill="#388E3C"/>
<rect width="10" height="20" transform="matrix(0.866025 -0.5 0 1 1480.66 371)" fill="#1B5E20"/>
<rect width="10" height="10" transform="matrix(0.866025 0.5 -0.866025 0.5 1480.66 361)" fill="#66BB6A"/>
<rect width="10" height="20" transform="matrix(0.866025 0.5 0 1 1472 366)" fill="#388E3C"/>
<rect width="10" height="20" transform="matrix(0.866025 -0.5 0 1 1480.66 371)" fill="#1B5E20"/>
<rect width="10" height="10" transform="matrix(0.866025 0.5 -0.866025 0.5 1440.66 346)" fill="#66BB6A"/>
<rect width="10" height="20" transform="matrix(0.866025 0.5 0 1 1432 351)" fill="#388E3C"/>
<rect width="10" height="20" transform="matrix(0.866025 -0.5 0 1 1440.66 356)" fill="#1B5E20"/>
<rect width="10" height="10" transform="matrix(0.866025 0.5 -0.866025 0.5 1440.66 346)" fill="#66BB6A"/>
<rect width="10" height="20" transform="matrix(0.866025 0.5 0 1 1432 351)" fill="#388E3C"/>
<rect width="10" height="20" transform="matrix(0.866025 -0.5 0 1 1440.66 356)" fill="#1B5E20"/>
<rect width="10" height="10" transform="matrix(0.866025 0.5 -0.866025 0.5 1467.66 401)" fill="#66BB6A"/>
<rect width="10" height="20" transform="matrix(0.866025 0.5 0 1 1459 406)" fill="#388E3C"/>
<rect width="10" height="20" transform="matrix(0.866025 -0.5 0 1 1467.66 411)" fill="#1B5E20"/>
<rect width="10" height="10" transform="matrix(0.866025 0.5 -0.866025 0.5 1467.66 401)" fill="#66BB6A"/>
<rect width="10" height="20" transform="matrix(0.866025 0.5 0 1 1459 406)" fill="#388E3C"/>
<rect width="10" height="20" transform="matrix(0.866025 -0.5 0 1 1467.66 411)" fill="#1B5E20"/>
<rect width="10" height="10" transform="matrix(0.866025 0.5 -0.866025 0.5 1628.66 511)" fill="#3E6030"/>
<rect width="10" height="20" transform="matrix(0.866025 0.5 0 1 1620 516)" fill="#2B4520"/>
<rect width="10" height="20" transform="matrix(0.866025 -0.5 0 1 1628.66 521)" fill="#1A2E15"/>
<rect width="10" height="10" transform="matrix(0.866025 0.5 -0.866025 0.5 1628.66 511)" fill="#3E6030"/>
<rect width="10" height="20" transform="matrix(0.866025 0.5 0 1 1620 516)" fill="#2B4520"/>
<rect width="10" height="20" transform="matrix(0.866025 -0.5 0 1 1628.66 521)" fill="#1A2E15"/>
<rect width="10" height="10" transform="matrix(0.866025 0.5 -0.866025 0.5 1668.66 526)" fill="#3E6030"/>
<rect width="10" height="20" transform="matrix(0.866025 0.5 0 1 1660 531)" fill="#2B4520"/>
<rect width="10" height="20" transform="matrix(0.866025 -0.5 0 1 1668.66 536)" fill="#1A2E15"/>
<rect width="10" height="10" transform="matrix(0.866025 0.5 -0.866025 0.5 1668.66 526)" fill="#3E6030"/>
<rect width="10" height="20" transform="matrix(0.866025 0.5 0 1 1660 531)" fill="#2B4520"/>
<rect width="10" height="20" transform="matrix(0.866025 -0.5 0 1 1668.66 536)" fill="#1A2E15"/>
<rect width="10" height="10" transform="matrix(0.866025 0.5 -0.866025 0.5 1793.66 591)" fill="#3E6030"/>
<rect width="10" height="20" transform="matrix(0.866025 0.5 0 1 1785 596)" fill="#2B4520"/>
<rect width="10" height="20" transform="matrix(0.866025 -0.5 0 1 1793.66 601)" fill="#1A2E15"/>
<rect width="10" height="10" transform="matrix(0.866025 0.5 -0.866025 0.5 1793.66 591)" fill="#3E6030"/>
<rect width="10" height="20" transform="matrix(0.866025 0.5 0 1 1785 596)" fill="#2B4520"/>
<rect width="10" height="20" transform="matrix(0.866025 -0.5 0 1 1793.66 601)" fill="#1A2E15"/>
<rect width="10" height="20" transform="matrix(0.866025 -0.5 0 1 1839.66 596)" fill="#1A2E15"/>
<rect width="10" height="10" transform="matrix(0.866025 0.5 -0.866025 0.5 1839.66 586)" fill="#3E6030"/>
<rect width="10" height="20" transform="matrix(0.866025 0.5 0 1 1831 591)" fill="#2B4520"/>
<rect width="10" height="10" transform="matrix(0.866025 0.5 -0.866025 0.5 1839.66 586)" fill="#3E6030"/>
<rect width="10" height="20" transform="matrix(0.866025 0.5 0 1 1831 591)" fill="#2B4520"/>
<rect width="10" height="20" transform="matrix(0.866025 -0.5 0 1 1839.66 596)" fill="#1A2E15"/>
<rect width="10" height="10" transform="matrix(0.866025 0.5 -0.866025 0.5 1793.66 561)" fill="#66BB6A"/>
<rect width="10" height="20" transform="matrix(0.866025 0.5 0 1 1785 566)" fill="#388E3C"/>
<rect width="10" height="20" transform="matrix(0.866025 -0.5 0 1 1793.66 571)" fill="#1B5E20"/>
<rect width="10" height="10" transform="matrix(0.866025 0.5 -0.866025 0.5 1793.66 561)" fill="#66BB6A"/>
<rect width="10" height="20" transform="matrix(0.866025 0.5 0 1 1785 566)" fill="#388E3C"/>
<rect width="10" height="20" transform="matrix(0.866025 -0.5 0 1 1793.66 571)" fill="#1B5E20"/>
<rect width="10" height="10" transform="matrix(0.866025 0.5 -0.866025 0.5 1614.66 456)" fill="#66BB6A"/>
<rect width="10" height="20" transform="matrix(0.866025 0.5 0 1 1606 461)" fill="#388E3C"/>
<rect width="10" height="20" transform="matrix(0.866025 -0.5 0 1 1614.66 466)" fill="#1B5E20"/>
<rect width="10" height="10" transform="matrix(0.866025 0.5 -0.866025 0.5 1614.66 456)" fill="#66BB6A"/>
<rect width="10" height="20" transform="matrix(0.866025 0.5 0 1 1606 461)" fill="#388E3C"/>
<rect width="10" height="20" transform="matrix(0.866025 -0.5 0 1 1614.66 466)" fill="#1B5E20"/>
<rect width="10" height="10" transform="matrix(0.866025 0.5 -0.866025 0.5 1663.66 481)" fill="#66BB6A"/>
<rect width="10" height="20" transform="matrix(0.866025 0.5 0 1 1655 486)" fill="#388E3C"/>
<rect width="10" height="20" transform="matrix(0.866025 -0.5 0 1 1663.66 491)" fill="#1B5E20"/>
<rect width="10" height="10" transform="matrix(0.866025 0.5 -0.866025 0.5 1663.66 481)" fill="#66BB6A"/>
<rect width="10" height="20" transform="matrix(0.866025 0.5 0 1 1655 486)" fill="#388E3C"/>
<rect width="10" height="20" transform="matrix(0.866025 -0.5 0 1 1663.66 491)" fill="#1B5E20"/>
<rect width="10" height="10" transform="matrix(0.866025 0.5 -0.866025 0.5 1747.66 521)" fill="#66BB6A"/>
<rect width="10" height="20" transform="matrix(0.866025 0.5 0 1 1739 526)" fill="#388E3C"/>
<rect width="10" height="20" transform="matrix(0.866025 -0.5 0 1 1747.66 531)" fill="#1B5E20"/>
<rect width="10" height="10" transform="matrix(0.866025 0.5 -0.866025 0.5 1747.66 521)" fill="#66BB6A"/>
<rect width="10" height="20" transform="matrix(0.866025 0.5 0 1 1739 526)" fill="#388E3C"/>
<rect width="10" height="20" transform="matrix(0.866025 -0.5 0 1 1747.66 531)" fill="#1B5E20"/>
<rect width="10" height="10" transform="matrix(0.866025 0.5 -0.866025 0.5 1707.66 506)" fill="#66BB6A"/>
<rect width="10" height="20" transform="matrix(0.866025 0.5 0 1 1699 511)" fill="#388E3C"/>
<rect width="10" height="20" transform="matrix(0.866025 -0.5 0 1 1707.66 516)" fill="#1B5E20"/>
<rect width="10" height="10" transform="matrix(0.866025 0.5 -0.866025 0.5 1707.66 506)" fill="#66BB6A"/>
<rect width="10" height="20" transform="matrix(0.866025 0.5 0 1 1699 511)" fill="#388E3C"/>
<rect width="10" height="20" transform="matrix(0.866025 -0.5 0 1 1707.66 516)" fill="#1B5E20"/>
<rect width="10" height="10" transform="matrix(0.866025 0.5 -0.866025 0.5 1734.66 561)" fill="#66BB6A"/>
<rect width="10" height="20" transform="matrix(0.866025 0.5 0 1 1726 566)" fill="#388E3C"/>
<rect width="10" height="20" transform="matrix(0.866025 -0.5 0 1 1734.66 571)" fill="#1B5E20"/>
<rect width="10" height="10" transform="matrix(0.866025 0.5 -0.866025 0.5 1734.66 561)" fill="#66BB6A"/>
<rect width="10" height="20" transform="matrix(0.866025 0.5 0 1 1726 566)" fill="#388E3C"/>
<rect width="10" height="20" transform="matrix(0.866025 -0.5 0 1 1734.66 571)" fill="#1B5E20"/>
</svg>
